<svg xmlns="http://www.w3.org/2000/svg" width="24" height="25" viewBox="0 0 24 25" fill="none">
  <mask id="mask0_167_2085" style="mask-type:alpha" maskUnits="userSpaceOnUse" x="0" y="0" width="24" height="25">
    <rect y="0.5" width="24" height="24" fill="#D9D9D9"/>
  </mask>
  <g mask="url(#mask0_167_2085)">
    <path d="M19.2 20.5C17.3987 20.5 15.5926 20.0853 13.7817 19.2558C11.9708 18.4263 10.3026 17.2487 8.77693 15.7231C7.26409 14.1974 6.08973 12.5237 5.25385 10.7019C4.41795 8.88013 4 7.07948 4 5.3V4.5H8.43848L9.28655 8.5827L6.59037 11.0923C7.04679 11.8833 7.51923 12.6058 8.0077 13.2596C8.49615 13.9135 9.00513 14.5032 9.53463 15.0288C10.0692 15.5891 10.6721 16.1125 11.3433 16.599C12.0144 17.0856 12.7795 17.5654 13.6385 18.0384L16.25 15.3308L20 16.0865V20.5H19.2ZM6.12115 10.1539L8.21345 8.23463L7.63463 5.5H5.00578C5.02501 6.26282 5.12757 7.03108 5.31345 7.8048C5.49935 8.57852 5.76858 9.36153 6.12115 10.1539ZM14.5712 18.4884C15.1865 18.7974 15.883 19.0385 16.6606 19.2116C17.4381 19.3846 18.2179 19.4769 19 19.4884V16.8846L16.6115 16.4096L14.5712 18.4884Z" fill="#1C1B1F"/>
  </g>
</svg>