<svg xmlns="http://www.w3.org/2000/svg" width="16" height="16" viewBox="0 0 16 16" fill="none">
  <mask id="mask0_312_414" style="mask-type:alpha" maskUnits="userSpaceOnUse" x="0" y="0" width="16" height="16">
    <rect width="16" height="16" fill="#D9D9D9"/>
  </mask>
  <g mask="url(#mask0_312_414)">
    <path d="M5.6501 11.2L8.0001 8.84998L10.3501 11.2L11.2001 10.35L8.8501 7.99998L11.2001 5.64998L10.3501 4.79998L8.0001 7.14998L5.6501 4.79998L4.8001 5.64998L7.1501 7.99998L4.8001 10.35L5.6501 11.2ZM8.0001 14.4C7.12232 14.4 6.29454 14.2333 5.51676 13.9C4.73899 13.5666 4.05843 13.1083 3.4751 12.525C2.89176 11.9416 2.43343 11.2611 2.1001 10.4833C1.76676 9.70553 1.6001 8.87775 1.6001 7.99998C1.6001 7.11109 1.76676 6.28053 2.1001 5.50831C2.43343 4.73609 2.89176 4.05831 3.4751 3.47498C4.05843 2.89164 4.73899 2.43331 5.51676 2.09998C6.29454 1.76664 7.12232 1.59998 8.0001 1.59998C8.88899 1.59998 9.71954 1.76664 10.4918 2.09998C11.264 2.43331 11.9418 2.89164 12.5251 3.47498C13.1084 4.05831 13.5668 4.73609 13.9001 5.50831C14.2334 6.28053 14.4001 7.11109 14.4001 7.99998C14.4001 8.87775 14.2334 9.70553 13.9001 10.4833C13.5668 11.2611 13.1084 11.9416 12.5251 12.525C11.9418 13.1083 11.264 13.5666 10.4918 13.9C9.71954 14.2333 8.88899 14.4 8.0001 14.4Z" fill="#212429" fill-opacity="0.8"/>
  </g>
</svg>