<svg xmlns="http://www.w3.org/2000/svg" width="25" height="24" viewBox="0 0 25 24" fill="none">
  <mask id="mask0_277_21" style="mask-type:alpha" maskUnits="userSpaceOnUse" x="0" y="0" width="25" height="24">
    <rect x="0.25" width="24" height="24" fill="#D9D9D9"/>
  </mask>
  <g mask="url(#mask0_277_21)">
    <path d="M19.1 13.925V7.36538L14.05 3.71728L8.99994 7.37288V9.46158H7.69999V6.725L14.05 2.10773L20.3999 6.7V13.925H19.1ZM14.548 8.05193H15.3519V7.24808H14.548V8.05193ZM12.748 8.05193H13.5519V7.24808H12.748V8.05193ZM14.548 9.85193H15.3519V9.04808H14.548V9.85193ZM12.748 9.85193H13.5519V9.04808H12.748V9.85193ZM13.8769 21.4884L6.96916 19.3288V20.6769H1.96924V11.3H8.38071L15.0038 13.6616C15.4576 13.8295 15.8095 14.0766 16.0595 14.4029C16.3095 14.7292 16.4345 15.1795 16.4345 15.7539H18.1346C19.0192 15.7539 19.7474 16.0721 20.3192 16.7087C20.8909 17.3452 21.1768 18.1115 21.1768 19.0077V19.2423L13.8769 21.4884ZM3.26919 19.3769H5.66919V12.6H3.26919V19.3769ZM13.8769 20.1327L19.7711 18.3327C19.6237 17.9442 19.4052 17.634 19.1158 17.4019C18.8263 17.1699 18.4993 17.0538 18.1346 17.0538H14.3923C13.541 17.0538 12.8256 17.0221 12.2461 16.9586C11.6666 16.8952 11.2141 16.798 10.8884 16.6673L9.48264 16.1231L10.0019 14.8846L11.1442 15.3596C11.5467 15.5224 12.0253 15.6289 12.5798 15.6789C13.1342 15.7289 13.9858 15.7539 15.1346 15.7539C15.1346 15.5064 15.0871 15.318 14.9923 15.1885C14.8974 15.059 14.7589 14.9628 14.5769 14.9L8.17686 12.6H6.96916V17.9538L13.8769 20.1327Z" fill="#1C1B1F"/>
  </g>
</svg>