<svg xmlns="http://www.w3.org/2000/svg" width="25" height="24" viewBox="0 0 25 24" fill="none">
  <mask id="mask0_277_38" style="mask-type:alpha" maskUnits="userSpaceOnUse" x="0" y="0" width="25" height="24">
    <rect x="0.75" width="24" height="24" fill="#D9D9D9"/>
  </mask>
  <g mask="url(#mask0_277_38)">
    <path d="M6.4576 21.1C6.01389 21.1 5.63501 20.943 5.32098 20.6289C5.00693 20.3149 4.8499 19.936 4.8499 19.4923V9.26922C4.50632 9.16794 4.22043 8.96954 3.99223 8.67403C3.76401 8.37851 3.6499 8.0487 3.6499 7.6846V4.50773C3.6499 4.06401 3.80693 3.68513 4.12098 3.3711C4.43501 3.05705 4.81389 2.90002 5.2576 2.90002H20.2422C20.6859 2.90002 21.0647 3.05705 21.3788 3.3711C21.6928 3.68513 21.8499 4.06401 21.8499 4.50773V7.6846C21.8499 8.0487 21.7357 8.37851 21.5075 8.67403C21.2793 8.96954 20.9934 9.16794 20.6499 9.26922V19.4889C20.6499 19.9399 20.4928 20.3211 20.1788 20.6327C19.8647 20.9442 19.4859 21.1 19.0422 21.1H6.4576ZM6.14988 9.29227V19.4442C6.14988 19.5468 6.18674 19.6317 6.26045 19.699C6.33419 19.7663 6.42554 19.8 6.53453 19.8H19.0422C19.1319 19.8 19.2056 19.7712 19.2633 19.7134C19.321 19.6558 19.3499 19.582 19.3499 19.4923V9.29227H6.14988ZM5.2576 7.99232H20.2422C20.3319 7.99232 20.4056 7.96348 20.4633 7.90578C20.521 7.84808 20.5499 7.77435 20.5499 7.6846V4.50773C20.5499 4.41798 20.521 4.34425 20.4633 4.28655C20.4056 4.22885 20.3319 4.2 20.2422 4.2H5.2576C5.16785 4.2 5.09413 4.22885 5.03643 4.28655C4.97873 4.34425 4.94988 4.41798 4.94988 4.50773V7.6846C4.94988 7.77435 4.97873 7.84808 5.03643 7.90578C5.09413 7.96348 5.16785 7.99232 5.2576 7.99232ZM10.5422 13.2327H14.9576V12H10.5422V13.2327Z" fill="#1C1B1F"/>
  </g>
</svg>