<svg xmlns="http://www.w3.org/2000/svg" width="60" height="60" viewBox="0 0 60 60" fill="none">
  <path d="M46.422 44.2567C46.5269 44.4759 46.6455 44.6879 46.7771 44.8916C50.2025 49.2789 49.26 55.0597 44.6412 58.0792C44.2114 58.3593 44.0165 58.3919 43.7415 57.8699C41.7498 54.0876 40.4202 50.1204 40.4696 45.778C40.4897 44.0419 40.7593 42.3533 41.7738 40.8836C42.7403 39.4792 44.1406 38.7301 45.6905 38.2502C48.4391 37.3851 51.3462 37.1753 54.1872 37.637C55.6729 37.8777 57.148 38.189 58.6217 38.4976C59.4801 38.6771 59.4854 38.7288 59.1824 39.5676C58.2907 42.027 56.6781 43.8162 54.3113 44.8331C52.0353 45.8107 49.7539 45.5986 47.5033 44.6496C47.4005 44.6074 47.3111 44.5327 47.2069 44.4973C47.0294 44.4212 46.8385 44.375 46.422 44.2567Z" fill="#F39222"/>
  <path d="M29.7027 52.1969C29.599 52.4166 29.5093 52.6425 29.4344 52.8732C28.1922 58.3028 23.1183 61.2114 17.8682 59.5196C17.3804 59.3615 17.2323 59.2304 17.4636 58.6875C19.1402 54.7548 21.3771 51.2208 24.7736 48.5235C26.1318 47.4453 27.6103 46.5913 29.3885 46.4548C31.0858 46.3221 32.5486 46.9398 33.897 47.8435C36.2991 49.4374 38.2932 51.5674 39.7252 54.069C40.4747 55.3768 41.1628 56.7208 41.8521 58.0621C42.2537 58.8431 42.2171 58.8798 41.376 59.1724C38.9082 60.028 36.5056 59.9004 34.2264 58.6993C32.0348 57.544 30.7619 55.6351 30.0795 53.2859C30.0474 53.1793 30.049 53.0626 30.0108 52.9593C29.9579 52.7732 29.8735 52.5956 29.7027 52.1969Z" fill="#FDD833"/>
  <path d="M13.333 43.9712C13.0985 44.0334 12.8684 44.1105 12.6441 44.2019C7.70194 46.7523 2.21125 44.7426 0.115654 39.631C-0.0784445 39.1554 -0.0739523 38.9575 0.489322 38.7845C4.57002 37.5321 8.70803 36.9659 12.9558 37.8274C14.654 38.1721 16.2589 38.7536 17.5098 40.0273C18.7057 41.2415 19.1779 42.7601 19.3583 44.3755C19.6919 47.243 19.3534 50.1438 18.3689 52.8538C17.8549 54.2712 17.2736 55.6648 16.6952 57.0577C16.3586 57.869 16.3069 57.8646 15.5413 57.4093C13.2972 56.0712 11.845 54.149 11.2911 51.6289C10.7589 49.2056 11.3938 46.9997 12.7454 44.962C12.806 44.8687 12.896 44.7947 12.9502 44.6988C13.058 44.5383 13.1391 44.359 13.333 43.9712Z" fill="#D3DC25"/>
  <path d="M9.80362 26.289C9.61549 26.1356 9.41795 25.9944 9.21223 25.8665C4.24674 23.3619 2.63889 17.7304 5.53149 13.0255C5.80108 12.5885 5.96348 12.4757 6.4344 12.8304C9.84561 15.4004 12.7366 18.4205 14.5401 22.3693C15.2609 23.9482 15.7356 25.5908 15.4435 27.3537C15.167 29.037 14.2192 30.3129 13.0217 31.4093C10.9037 33.3664 8.36347 34.7985 5.5973 35.5948C4.15101 36.0121 2.6843 36.3608 1.21994 36.7114C0.367186 36.9159 0.340373 36.8715 0.25745 35.9832C0.0172864 33.3776 0.714398 31.0702 2.42237 29.139C4.06501 27.2822 6.21877 26.4991 8.65838 26.3957C8.76929 26.3899 8.88201 26.4193 8.99124 26.4068C9.18423 26.3998 9.37656 26.36 9.80362 26.289Z" fill="#8CC341"/>
  <path d="M21.2796 11.7478C21.2785 11.5047 21.2621 11.2622 21.2302 11.0216C20.0114 5.58682 23.3349 0.768258 28.7995 0.0231011C29.3076 -0.0453931 29.4977 0.0088033 29.5229 0.598586C29.705 4.8712 29.2099 9.02658 27.3084 12.9289C26.5479 14.489 25.5821 15.8989 24.037 16.7912C22.5632 17.6452 20.9776 17.7208 19.372 17.489C16.5186 17.0905 13.8021 16.0319 11.4327 14.3948C10.1931 13.5395 8.99346 12.6248 7.79385 11.7132C7.09503 11.1825 7.11231 11.1335 7.74481 10.5057C9.60223 8.66638 11.8244 7.74216 14.3977 7.83953C16.8722 7.93355 18.8428 9.10472 20.4706 10.9285C20.5455 11.0107 20.5943 11.1167 20.6733 11.1933C20.8011 11.3384 20.9538 11.4621 21.2796 11.7478Z" fill="#048D59"/>
  <path d="M39.3334 11.8746C39.5211 11.7207 39.6987 11.5551 39.8651 11.3788C43.31 7.00689 49.1384 6.55842 53.158 10.3419C53.5311 10.6943 53.6088 10.8763 53.1676 11.2674C49.9705 14.1005 46.4378 16.3325 42.2152 17.3106C40.527 17.7014 38.8258 17.8378 37.1609 17.1973C35.5707 16.5882 34.5133 15.4018 33.6817 14.0062C32.1932 11.5345 31.3028 8.75351 31.0792 5.87831C30.9615 4.37484 30.9148 2.86505 30.8658 1.35721C30.837 0.479072 30.8858 0.461669 31.7708 0.558478C34.3665 0.845504 36.4825 1.99278 38.028 4.0569C39.5137 6.04195 39.8472 8.31331 39.4588 10.7289C39.4423 10.839 39.3909 10.9437 39.3812 11.0535C39.3493 11.2443 39.3496 11.4411 39.3334 11.8746Z" fill="#E81C2F"/>
  <path d="M50.3636 25.9993C50.5995 26.0561 50.8385 26.0976 51.0793 26.1238C56.6374 26.2283 60.5191 30.6078 59.9435 36.1038C59.8892 36.6146 59.7915 36.7867 59.2138 36.6712C55.0286 35.8337 51.1179 34.3647 47.7866 31.5869C46.4549 30.4761 45.3175 29.2012 44.8195 27.4853C44.3417 25.8479 44.645 24.2866 45.2511 22.7789C46.3152 20.0961 47.9867 17.7035 50.1364 15.786C51.2601 14.7827 52.4317 13.8323 53.6004 12.8811C54.2808 12.327 54.3242 12.3554 54.7826 13.1202C56.1244 15.365 56.4926 17.7475 55.7869 20.2292C55.108 22.6154 53.5046 24.2553 51.35 25.4065C51.2525 25.4598 51.1382 25.4822 51.0451 25.5409C50.8742 25.6309 50.7179 25.7501 50.3636 25.9993Z" fill="#ED5B2A"/>
</svg>