<svg width="1009" height="799" viewBox="0 0 1009 799" fill="none" xmlns="http://www.w3.org/2000/svg">
<g clip-path="url(#clip0_282_1363)">
<path d="M730.019 349.963C730.257 347.796 730.631 345.649 731.142 343.534C747.148 296.211 721.916 250.148 673.7 238.409C669.215 237.324 667.463 237.63 666.685 242.865C661.048 280.792 661.583 318.305 674.946 354.873C680.291 369.493 687.613 382.965 700.608 392.362C713 401.35 727.122 403.503 741.712 402.933C767.628 402.04 792.936 395.133 815.681 382.746C827.579 376.275 839.175 369.238 850.768 362.228C857.521 358.147 857.412 357.694 852.339 351.507C837.437 333.375 818.413 323.062 795.286 321.531C773.048 320.062 754.31 328.668 738.029 343.412C737.282 344.075 736.745 344.974 735.967 345.584C734.686 346.758 733.203 347.719 730.019 349.963Z" fill="url(#paint0_linear_282_1363)"/>
<path d="M984.549 500.244C986.444 501.319 988.268 502.514 990.007 503.82C1027.12 537.261 1079.41 532.336 1109.29 492.712C1112.06 489.024 1112.47 487.294 1107.97 484.505C1075.38 464.308 1040.72 449.942 1001.85 447.729C986.312 446.846 971.041 448.234 957.266 456.444C944.105 464.263 936.535 476.378 931.28 490C921.835 514.15 918.154 540.125 920.519 565.916C921.749 579.403 923.618 592.838 925.463 606.26C926.535 614.077 926.994 614.156 934.685 611.948C957.236 605.447 974.24 592.062 984.806 571.433C994.962 551.595 994.482 530.982 987.392 510.193C987.079 509.244 986.466 508.395 986.214 507.439C985.643 505.798 985.349 504.056 984.549 500.244Z" fill="url(#paint1_linear_282_1363)"/>
<path d="M767.698 602.964C769.293 601.48 770.981 600.1 772.749 598.833C815.795 573.481 826.808 522.127 797.991 481.727C795.306 477.975 793.78 477.061 789.769 480.514C760.712 505.533 736.598 534.273 722.808 570.682C717.297 585.24 714.033 600.222 717.725 615.827C721.228 630.73 730.509 641.59 741.923 650.695C762.12 666.959 785.788 678.274 811.098 683.767C824.332 686.646 837.708 688.9 851.064 691.173C858.842 692.498 859.055 692.085 859.26 684.086C859.835 660.623 852.177 640.383 835.676 624.108C819.806 608.46 800 602.725 778.041 603.242C777.042 603.255 776.049 603.585 775.061 603.538C773.324 603.589 771.574 603.347 767.698 602.964Z" fill="url(#paint2_linear_282_1363)"/>
<path d="M940.183 253.071C942.314 253.526 944.412 254.117 946.464 254.839C991.921 275.56 1040.31 255.126 1056.87 208.348C1058.4 203.997 1058.28 202.223 1053.15 200.918C1015.99 191.465 978.614 188.196 940.88 197.783C925.794 201.619 911.649 207.538 900.983 219.513C890.785 230.93 887.212 244.762 886.3 259.334C884.561 285.207 888.867 311.085 898.886 334.968C904.117 347.461 909.943 359.71 915.742 371.954C919.116 379.086 919.578 379.024 926.248 374.604C945.797 361.617 957.985 343.735 961.852 320.883C965.568 298.908 958.906 279.395 945.888 261.703C945.304 260.893 944.463 260.268 943.936 259.431C942.898 258.038 942.092 256.466 940.183 253.071Z" fill="url(#paint3_linear_282_1363)"/>
<path d="M856.522 449.581C856.501 448.51 856.549 447.44 856.665 446.377C861.494 422.299 846.297 401.427 822.052 398.735C819.798 398.488 818.963 398.747 818.912 401.348C818.548 420.193 821.167 438.449 829.98 455.437C833.505 462.229 837.921 468.337 844.847 472.101C851.454 475.705 858.474 475.866 865.551 474.671C878.13 472.607 890.035 467.649 900.345 460.18C905.739 456.278 910.951 452.118 916.162 447.972C919.198 445.558 919.116 445.344 916.254 442.646C907.849 434.743 897.926 430.911 886.555 431.618C875.62 432.3 867.026 437.673 860.015 445.884C859.692 446.255 859.487 446.727 859.146 447.073C858.595 447.726 857.933 448.287 856.522 449.581Z" fill="url(#paint4_linear_282_1363)"/>
<path d="M971.432 398.28C970.391 398.027 969.368 397.709 968.369 397.327C946.308 386.54 922.26 395.936 913.497 418.702C912.685 420.82 912.724 421.693 915.227 422.403C933.362 427.542 951.683 429.647 970.353 425.438C977.818 423.754 984.847 421.034 990.247 415.292C995.411 409.817 997.351 403.068 997.993 395.92C999.192 383.229 997.421 370.455 992.816 358.586C990.411 352.378 987.712 346.281 985.026 340.187C983.462 336.637 983.235 336.662 979.898 338.745C970.119 344.866 963.892 353.491 961.687 364.669C959.569 375.418 962.582 385.095 968.744 393.962C969.02 394.368 969.424 394.686 969.673 395.104C970.164 395.802 970.539 396.586 971.432 398.28Z" fill="url(#paint5_linear_282_1363)"/>
<path d="M803.628 272.44C802.906 271.649 802.236 270.813 801.621 269.937C789.366 248.656 764.176 242.996 744.179 256.967C742.322 258.269 741.866 259.015 743.544 261.003C755.702 275.406 769.714 287.398 787.544 294.351C794.674 297.129 802.022 298.806 809.711 297.066C817.053 295.416 822.436 290.906 826.966 285.339C835.057 275.489 840.733 263.909 843.554 251.495C845.033 245.003 846.206 238.439 847.387 231.885C848.076 228.068 847.874 227.961 843.943 227.822C832.412 227.427 822.427 231.094 814.347 239.127C806.58 246.853 803.665 256.561 803.814 267.357C803.816 267.848 803.973 268.338 803.945 268.824C803.962 269.677 803.835 270.537 803.628 272.44Z" fill="url(#paint6_linear_282_1363)"/>
<path d="M881.096 554.698C880.241 555.343 879.346 555.932 878.416 556.461C856.081 566.67 848.088 591.219 860.125 612.437C861.247 614.408 861.947 614.932 864.083 613.447C879.561 602.691 892.812 589.864 901.404 572.763C904.838 565.925 907.196 558.765 906.183 550.948C905.228 543.483 901.242 537.702 896.124 532.67C887.075 523.692 876.077 516.957 863.981 512.985C857.657 510.905 851.232 509.124 844.817 507.334C841.081 506.29 840.956 506.482 840.449 510.382C838.976 521.825 841.692 532.11 848.933 540.906C855.898 549.363 865.29 553.174 876.053 554.037C876.542 554.081 877.045 553.97 877.525 554.043C878.377 554.107 879.22 554.314 881.096 554.698Z" fill="url(#paint7_linear_282_1363)"/>
<path d="M738.743 460.545C738.167 459.641 737.651 458.703 737.196 457.735C728.779 434.665 704.936 424.761 682.836 435.089C680.783 436.052 680.205 436.709 681.517 438.956C691.02 455.233 702.763 469.453 719.134 479.367C725.68 483.329 732.631 486.243 740.504 485.85C748.021 485.485 754.098 481.967 759.518 477.261C769.181 468.948 776.762 458.516 781.674 446.77C784.246 440.63 786.529 434.365 788.818 428.111C790.153 424.469 789.972 424.329 786.124 423.517C774.832 421.147 764.365 423.043 755.026 429.569C746.047 435.845 741.508 444.908 739.799 455.57C739.717 456.054 739.788 456.564 739.677 457.037C739.547 457.881 739.273 458.705 738.743 460.545Z" fill="url(#paint8_linear_282_1363)"/>
<path d="M965.737 685.721C965.438 686.749 965.075 687.757 964.649 688.738C952.89 710.298 961.207 734.739 983.56 744.507C985.64 745.412 986.514 745.412 987.335 742.943C993.276 725.055 996.194 706.845 992.82 688.007C991.47 680.475 989.065 673.331 983.569 667.681C978.33 662.279 971.674 660.041 964.561 659.081C951.936 657.319 939.096 658.52 927.034 662.592C920.724 664.717 914.513 667.143 908.306 669.556C904.691 670.959 904.705 671.188 906.637 674.614C912.318 684.656 920.656 691.26 931.725 693.96C942.369 696.555 952.171 693.975 961.303 688.214C961.721 687.956 962.057 687.566 962.486 687.337C963.205 686.877 964.005 686.537 965.737 685.721Z" fill="url(#paint9_linear_282_1363)"/>
<path d="M307.93 274.637C308.096 273.129 308.357 271.634 308.712 270.161C319.856 237.215 302.289 205.145 268.72 196.973C265.598 196.218 264.379 196.431 263.836 200.075C259.912 226.48 260.285 252.597 269.588 278.056C273.309 288.234 278.407 297.613 287.454 304.155C296.081 310.413 305.913 311.912 316.071 311.515C334.113 310.893 351.733 306.085 367.568 297.461C375.851 292.955 383.925 288.056 391.996 283.176C396.697 280.335 396.622 280.02 393.09 275.712C382.715 263.088 369.47 255.909 353.369 254.843C337.887 253.82 324.841 259.811 313.507 270.076C312.987 270.538 312.613 271.164 312.071 271.589C311.179 272.406 310.147 273.075 307.93 274.637Z" fill="url(#paint10_linear_282_1363)"/>
<path d="M485.135 379.263C486.454 380.012 487.723 380.844 488.935 381.754C514.773 405.035 551.178 401.606 571.977 374.02C573.907 371.452 574.195 370.248 571.063 368.306C548.371 354.245 524.243 344.244 497.181 342.703C486.362 342.088 475.73 343.054 466.14 348.77C456.977 354.214 451.707 362.648 448.048 372.132C441.473 388.945 438.91 407.029 440.557 424.984C441.413 434.375 442.714 443.728 443.999 453.072C444.745 458.514 445.064 458.57 450.419 457.033C466.119 452.506 477.958 443.188 485.313 428.826C492.384 415.015 492.05 400.663 487.114 386.19C486.896 385.529 486.469 384.939 486.294 384.273C485.896 383.13 485.691 381.917 485.135 379.263Z" fill="url(#paint11_linear_282_1363)"/>
<path d="M334.161 450.777C335.272 449.744 336.447 448.783 337.678 447.901C367.647 430.251 375.314 394.498 355.252 366.371C353.382 363.759 352.32 363.123 349.527 365.527C329.298 382.945 312.51 402.954 302.909 428.302C299.072 438.438 296.8 448.868 299.37 459.732C301.809 470.108 308.271 477.668 316.217 484.007C330.278 495.33 346.756 503.208 364.377 507.032C373.591 509.037 382.903 510.606 392.201 512.188C397.616 513.111 397.765 512.823 397.908 507.254C398.307 490.919 392.976 476.828 381.488 465.497C370.439 454.604 356.65 450.611 341.363 450.97C340.667 450.98 339.975 451.21 339.288 451.177C338.079 451.212 336.86 451.044 334.161 450.777Z" fill="url(#paint12_linear_282_1363)"/>
<path d="M454.247 207.181C455.73 207.498 457.191 207.909 458.62 208.412C490.267 222.838 523.952 208.612 535.485 176.045C536.553 173.015 536.464 171.78 532.893 170.872C507.022 164.291 481.002 162.015 454.732 168.689C444.229 171.36 434.381 175.481 426.956 183.818C419.856 191.766 417.368 201.396 416.734 211.541C415.523 229.554 418.521 247.57 425.495 264.198C429.138 272.895 433.193 281.423 437.231 289.948C439.58 294.913 439.902 294.869 444.545 291.792C458.155 282.751 466.641 270.302 469.333 254.392C471.92 239.093 467.282 225.507 458.219 213.191C457.812 212.626 457.227 212.191 456.859 211.609C456.137 210.639 455.576 209.544 454.247 207.181Z" fill="url(#paint13_linear_282_1363)"/>
<path d="M396.002 343.993C395.987 343.247 396.021 342.502 396.101 341.762C399.463 324.999 388.883 310.468 372.004 308.593C370.434 308.421 369.853 308.602 369.818 310.413C369.564 323.533 371.387 336.242 377.523 348.07C379.977 352.798 383.052 357.05 387.874 359.671C392.473 362.18 397.361 362.293 402.288 361.461C411.045 360.024 419.334 356.572 426.512 351.372C430.267 348.655 433.895 345.759 437.523 342.872C439.637 341.192 439.58 341.043 437.587 339.165C431.736 333.662 424.827 330.994 416.911 331.487C409.298 331.961 403.314 335.702 398.434 341.419C398.209 341.677 398.066 342.006 397.829 342.247C397.445 342.701 396.984 343.092 396.002 343.993Z" fill="url(#paint14_linear_282_1363)"/>
<path d="M476.003 308.275C475.278 308.1 474.566 307.878 473.87 307.612C458.511 300.102 441.769 306.644 435.668 322.493C435.103 323.968 435.13 324.576 436.873 325.07C449.498 328.648 462.254 330.113 475.252 327.183C480.449 326.011 485.342 324.117 489.102 320.119C492.697 316.308 494.048 311.609 494.495 306.633C495.329 297.797 494.096 288.904 490.89 280.641C489.216 276.318 487.337 272.074 485.467 267.831C484.378 265.36 484.22 265.377 481.897 266.827C475.089 271.089 470.753 277.093 469.218 284.875C467.744 292.359 469.842 299.096 474.131 305.269C474.324 305.552 474.605 305.774 474.778 306.065C475.12 306.551 475.381 307.096 476.003 308.275Z" fill="url(#paint15_linear_282_1363)"/>
<path d="M359.177 220.666C358.674 220.115 358.207 219.533 357.78 218.923C349.248 204.107 331.71 200.167 317.788 209.894C316.495 210.8 316.178 211.319 317.346 212.703C325.811 222.731 335.566 231.079 347.979 235.92C352.943 237.854 358.059 239.021 363.412 237.81C368.523 236.661 372.271 233.521 375.425 229.646C381.058 222.788 385.01 214.727 386.974 206.083C388.003 201.564 388.82 196.994 389.642 192.431C390.122 189.774 389.981 189.699 387.244 189.603C379.217 189.328 372.265 191.88 366.64 197.473C361.232 202.852 359.203 209.61 359.306 217.127C359.308 217.469 359.417 217.81 359.398 218.148C359.409 218.742 359.321 219.34 359.177 220.666Z" fill="url(#paint16_linear_282_1363)"/>
<path d="M577.474 220.666C577.345 219.932 577.263 219.19 577.229 218.446C577.972 201.366 565.282 188.636 548.315 189.38C546.738 189.452 546.191 189.72 546.435 191.515C548.203 204.517 551.959 216.795 559.841 227.537C562.994 231.832 566.686 235.56 571.854 237.408C576.785 239.179 581.631 238.539 586.372 236.959C594.804 234.191 602.462 229.505 608.755 223.263C612.047 220 615.188 216.581 618.328 213.17C620.158 211.185 620.078 211.046 617.82 209.497C611.192 204.96 603.955 203.387 596.208 205.092C588.759 206.732 583.424 211.349 579.481 217.749C579.298 218.038 579.208 218.385 579.01 218.659C578.701 219.167 578.306 219.625 577.474 220.666Z" fill="url(#paint17_linear_282_1363)"/>
<path d="M593.752 301.124C593.12 301.521 592.465 301.877 591.789 302.19C575.695 307.958 568.705 324.518 575.807 339.945C576.47 341.378 576.924 341.783 578.494 340.879C589.864 334.327 599.811 326.209 606.777 314.851C609.562 310.309 611.618 305.481 611.376 299.999C611.152 294.764 608.727 290.519 605.472 286.727C599.723 279.967 592.49 274.648 584.333 271.181C580.068 269.366 575.715 267.752 571.371 266.133C568.841 265.189 568.742 265.315 568.161 267.991C566.467 275.842 567.745 283.137 572.251 289.665C576.585 295.941 582.877 299.137 590.292 300.369C590.629 300.428 590.984 300.381 591.313 300.46C591.9 300.554 592.473 300.748 593.752 301.124Z" fill="url(#paint18_linear_282_1363)"/>
<path d="M413.11 417.173C412.514 417.622 411.891 418.032 411.244 418.401C395.695 425.508 390.129 442.599 398.51 457.371C399.291 458.743 399.778 459.108 401.266 458.074C412.042 450.586 421.267 441.656 427.249 429.75C429.639 424.989 431.281 420.005 430.576 414.562C429.91 409.365 427.135 405.34 423.572 401.837C417.272 395.586 409.616 390.897 401.195 388.133C396.792 386.684 392.318 385.444 387.852 384.198C385.252 383.471 385.164 383.605 384.811 386.32C383.786 394.287 385.677 401.447 390.718 407.571C395.567 413.459 402.106 416.112 409.599 416.712C409.939 416.743 410.289 416.666 410.624 416.717C411.217 416.761 411.804 416.905 413.11 417.173Z" fill="url(#paint19_linear_282_1363)"/>
<path d="M314.004 351.625C313.603 350.995 313.243 350.342 312.927 349.668C307.067 333.607 290.467 326.712 275.081 333.902C273.652 334.573 273.25 335.03 274.163 336.594C280.779 347.926 288.954 357.827 300.352 364.728C304.909 367.487 309.749 369.515 315.23 369.242C320.463 368.988 324.694 366.539 328.467 363.263C335.195 357.475 340.473 350.212 343.893 342.035C345.683 337.759 347.273 333.398 348.867 329.044C349.796 326.508 349.67 326.411 346.99 325.845C339.129 324.195 331.842 325.516 325.34 330.059C319.089 334.429 315.929 340.738 314.739 348.161C314.682 348.498 314.731 348.853 314.654 349.182C314.563 349.77 314.373 350.344 314.004 351.625Z" fill="url(#paint20_linear_282_1363)"/>
<path d="M538.542 454.502C538.612 453.76 538.73 453.023 538.893 452.297C544.128 436.021 535.257 420.388 518.698 416.618C517.158 416.27 516.56 416.384 516.32 418.179C514.586 431.186 514.961 444.02 519.722 456.465C521.626 461.441 524.2 466.013 528.695 469.162C532.982 472.174 537.825 472.838 542.815 472.569C551.679 472.13 560.304 469.637 568.023 465.281C572.062 463.006 575.994 460.538 579.925 458.08C582.215 456.649 582.175 456.495 580.407 454.403C575.215 448.275 568.652 444.844 560.73 444.439C553.113 444.05 546.745 447.091 541.249 452.22C540.997 452.45 540.818 452.761 540.555 452.974C540.123 453.382 539.62 453.718 538.542 454.502Z" fill="url(#paint21_linear_282_1363)"/>
<path d="M597.776 401.544C598.223 400.947 598.707 400.38 599.226 399.846C612.183 388.691 612.771 370.726 600.61 358.871C599.478 357.77 598.909 357.555 597.768 358.962C589.502 369.154 583.127 380.299 580.695 393.4C579.724 398.638 579.535 403.882 581.727 408.913C583.812 413.719 587.598 416.813 591.996 419.186C599.786 423.436 608.445 425.809 617.304 426.12C621.936 426.286 626.578 426.232 631.214 426.186C633.914 426.16 633.961 426.007 633.544 423.301C632.311 415.364 628.502 409.012 621.955 404.534C615.659 400.228 608.641 399.5 601.276 401.009C600.941 401.074 600.626 401.246 600.29 401.29C599.709 401.413 599.104 401.437 597.776 401.544Z" fill="url(#paint22_linear_282_1363)"/>
<path d="M524.799 503.598C525.501 503.85 526.185 504.146 526.848 504.484C541.322 513.585 558.665 508.86 566.416 493.749C567.135 492.342 567.173 491.735 565.492 491.058C553.319 486.158 540.792 483.346 527.556 484.877C522.264 485.49 517.196 486.853 513.033 490.429C509.053 493.836 507.21 498.365 506.236 503.266C504.467 511.962 504.749 520.936 507.058 529.494C508.263 533.969 509.679 538.39 511.088 542.807C511.908 545.38 512.067 545.38 514.531 544.185C521.754 540.671 526.704 535.162 529.057 527.587C531.319 520.303 529.949 513.38 526.34 506.786C526.179 506.485 525.922 506.234 525.781 505.926C525.492 505.407 525.292 504.837 524.799 503.598Z" fill="url(#paint23_linear_282_1363)"/>
<path d="M472.037 508.392C471.829 509.108 471.576 509.81 471.279 510.493C463.093 525.502 468.883 542.519 484.446 549.319C485.894 549.949 486.502 549.949 487.074 548.23C491.21 535.777 493.241 523.099 490.892 509.983C489.953 504.74 488.278 499.767 484.452 495.833C480.804 492.072 476.17 490.513 471.218 489.845C462.429 488.618 453.49 489.454 445.092 492.289C440.699 493.769 436.375 495.458 432.054 497.138C429.536 498.115 429.546 498.274 430.892 500.659C434.846 507.65 440.652 512.249 448.358 514.128C455.768 515.935 462.593 514.138 468.95 510.128C469.241 509.948 469.475 509.677 469.774 509.517C470.275 509.197 470.831 508.96 472.037 508.392Z" fill="url(#paint24_linear_282_1363)"/>
<path d="M601.688 538.06C602.381 539.41 602.987 540.801 603.502 542.226C612.353 575.861 644.681 592.946 677.198 581.273C680.22 580.183 681.12 579.334 679.565 575.993C668.293 551.795 653.593 530.205 631.803 514.083C623.091 507.639 613.669 502.62 602.515 502.145C591.867 501.675 582.836 505.841 574.578 511.768C559.863 522.227 547.807 535.947 539.343 551.868C534.912 560.192 530.874 568.728 526.827 577.248C524.468 582.209 524.705 582.43 530.026 584.079C545.639 588.899 560.648 587.593 574.672 579.613C588.156 571.936 595.743 559.75 599.547 544.938C599.727 544.266 599.694 543.538 599.912 542.885C600.206 541.712 600.699 540.585 601.688 538.06Z" fill="url(#paint25_linear_282_1363)"/>
<path d="M522.828 261.33C523.562 261.464 524.286 261.644 524.995 261.869C540.762 268.481 557.099 260.983 562.275 244.808C562.753 243.303 562.691 242.698 560.923 242.305C548.112 239.462 535.294 238.735 522.486 242.411C517.366 243.881 512.59 246.054 509.067 250.262C505.698 254.275 504.621 259.044 504.462 264.038C504.138 272.907 505.883 281.714 509.56 289.778C511.481 293.997 513.602 298.126 515.714 302.253C516.943 304.658 517.101 304.632 519.336 303.05C525.887 298.402 529.869 292.157 530.952 284.3C531.992 276.744 529.509 270.139 524.87 264.223C524.662 263.952 524.368 263.747 524.178 263.467C523.809 263.001 523.517 262.472 522.828 261.33Z" fill="url(#paint26_linear_282_1363)"/>
<path d="M220.92 139.073C221.467 138.142 222.072 137.247 222.732 136.395C239.567 118.253 237.508 92.3146 218.097 77.2265C216.29 75.8265 215.437 75.6094 214.022 77.8176C203.78 93.816 196.411 110.88 195.032 130.119C194.481 137.811 195.058 145.385 199.025 152.269C202.802 158.846 208.748 162.684 215.458 165.386C227.352 170.24 240.192 172.253 252.986 171.269C259.676 170.758 266.345 169.93 273.007 169.114C276.887 168.64 276.93 168.413 275.892 164.587C272.836 153.369 266.329 144.848 256.187 139.464C246.434 134.288 236.219 134.376 225.869 137.737C225.397 137.885 224.972 138.183 224.496 138.3C223.679 138.571 222.814 138.704 220.92 139.073Z" fill="url(#paint27_linear_282_1363)"/>
<path d="M201.225 279.583C202.247 279.236 203.289 278.954 204.346 278.741C228.945 276.016 244.342 255.039 239.514 230.933C239.061 228.692 238.557 227.97 236.043 228.717C217.835 234.129 201.104 242.227 187.485 255.885C182.041 261.347 177.526 267.456 176.028 275.258C174.588 282.705 176.58 289.496 179.891 295.927C185.72 307.376 194.122 317.292 204.447 324.909C209.844 328.896 215.433 332.628 221.008 336.365C224.254 338.542 224.435 338.399 226.15 334.825C231.17 324.337 231.816 313.635 227.659 302.931C223.661 292.639 215.873 286.029 205.843 281.807C205.389 281.611 204.873 281.558 204.436 281.336C203.641 281.007 202.899 280.543 201.225 279.583Z" fill="url(#paint28_linear_282_1363)"/>
<path d="M368.646 118.851C369.517 119.489 370.346 120.182 371.127 120.925C387.468 139.513 413.482 140.093 430.46 122.312C432.036 120.656 432.339 119.829 430.285 118.198C415.407 106.387 399.178 97.3263 380.178 94.0038C372.582 92.6766 364.988 92.4823 357.738 95.7309C350.812 98.822 346.391 104.349 343.022 110.75C336.987 122.091 333.683 134.661 333.366 147.488C333.196 154.196 333.343 160.914 333.48 167.625C333.559 171.533 333.78 171.598 337.691 170.954C349.162 169.05 358.298 163.441 364.683 153.897C370.82 144.719 371.768 134.547 369.474 123.91C369.374 123.425 369.121 122.972 369.052 122.487C368.866 121.647 368.821 120.773 368.646 118.851Z" fill="url(#paint29_linear_282_1363)"/>
<path d="M291.078 131.008C290.912 130.504 290.779 129.99 290.679 129.47C289.457 117.365 279.22 109.696 267.348 111.954C266.244 112.165 265.887 112.41 266.242 113.649C268.815 122.625 272.715 130.888 279.363 137.648C282.022 140.351 285.003 142.599 288.831 143.373C292.484 144.116 295.832 143.17 299.009 141.573C304.665 138.763 309.579 134.681 313.373 129.642C315.359 127.008 317.22 124.279 319.084 121.556C320.17 119.971 320.1 119.882 318.352 119.021C313.22 116.503 307.963 116.135 302.682 118.126C297.603 120.042 294.317 123.839 292.193 128.749C292.094 128.971 292.066 129.224 291.955 129.438C291.789 129.827 291.558 130.19 291.078 131.008Z" fill="url(#paint30_linear_282_1363)"/>
<path d="M209.047 197.042C208.971 196.517 208.928 195.988 208.918 195.458C209.795 183.323 201.028 174.01 188.944 174.194C187.82 174.213 187.426 174.392 187.563 175.674C188.555 184.959 190.978 193.769 196.366 201.57C198.521 204.689 201.071 207.417 204.71 208.836C208.181 210.197 211.642 209.84 215.046 208.812C221.1 207.016 226.643 203.838 231.246 199.526C233.654 197.273 235.957 194.904 238.261 192.542C239.603 191.167 239.549 191.067 237.975 189.919C233.352 186.557 228.237 185.29 222.692 186.345C217.36 187.36 213.47 190.536 210.534 195.008C210.399 195.21 210.327 195.454 210.181 195.646C209.951 196.001 209.66 196.318 209.047 197.042Z" fill="url(#paint31_linear_282_1363)"/>
<path d="M41.7526 43.7963C42.1332 43.1481 42.5545 42.5254 43.0138 41.932C54.7349 29.3018 53.3014 11.2432 39.7875 0.738787C38.5296 -0.235879 37.935 -0.387039 36.9505 1.15033C29.8196 12.2884 24.6896 24.1682 23.7292 37.5624C23.346 42.9177 23.7473 48.1911 26.5089 52.9835C29.1386 57.5622 33.2785 60.2343 37.9498 62.1157C46.2307 65.4954 55.1702 66.8968 64.0769 66.2116C68.7347 65.8559 73.3776 65.2795 78.0157 64.7112C80.717 64.3811 80.7467 64.2233 80.0244 61.5596C77.8964 53.7492 73.3666 47.817 66.3057 44.0686C59.5155 40.4653 52.4038 40.5264 45.1982 42.8663C44.8694 42.9695 44.5736 43.1767 44.2424 43.2586C43.6737 43.4471 43.0713 43.5399 41.7526 43.7963Z" fill="url(#paint32_linear_282_1363)"/>
<path d="M100.618 127.037C101.062 127.643 101.467 128.277 101.83 128.933C108.785 144.698 125.934 150.534 140.932 142.286C142.325 141.517 142.7 141.031 141.678 139.518C134.275 128.559 125.398 119.143 113.48 112.956C108.714 110.483 103.713 108.763 98.2192 109.401C92.9734 110.002 88.8802 112.745 85.3025 116.289C78.9194 122.555 74.092 130.208 71.1935 138.658C69.6754 143.075 68.3657 147.567 67.0506 152.051C66.2838 154.662 66.4169 154.752 69.1488 155.143C77.1634 156.283 84.4045 154.473 90.643 149.474C96.641 144.666 99.4015 138.112 100.107 130.569C100.142 130.226 100.069 129.873 100.125 129.536C100.177 128.939 100.331 128.349 100.618 127.037Z" fill="url(#paint33_linear_282_1363)"/>
<path d="M17.8723 128.729C18.584 128.488 19.3099 128.292 20.0454 128.143C37.1715 126.246 47.8905 111.642 44.5292 94.8587C44.2143 93.2989 43.8632 92.7959 42.1132 93.3158C29.4362 97.0842 17.7887 102.722 8.30678 112.231C4.51641 116.033 1.37316 120.286 0.330712 125.718C-0.671979 130.902 0.71447 135.631 3.02 140.108C7.07797 148.078 12.9273 154.982 20.1158 160.285C23.8734 163.061 27.7639 165.659 31.6455 168.261C33.9057 169.777 34.0313 169.677 35.2257 167.189C38.7205 159.887 39.1698 152.436 36.2762 144.984C33.4926 137.819 28.0705 133.217 21.0879 130.278C20.7716 130.141 20.4123 130.104 20.1081 129.95C19.5545 129.721 19.0379 129.397 17.8723 128.729Z" fill="url(#paint34_linear_282_1363)"/>
<path d="M121.57 42.993C122.176 43.4373 122.753 43.9195 123.297 44.4367C134.674 57.3775 152.785 57.7819 164.605 45.4023C165.702 44.2496 165.912 43.6735 164.483 42.5382C154.125 34.3151 142.826 28.0074 129.598 25.6942C124.31 24.7702 119.023 24.6349 113.975 26.8966C109.153 29.0486 106.075 32.8963 103.73 37.3529C99.5286 45.2486 97.2283 53.9999 97.0072 62.9302C96.8889 67.6001 96.9917 72.2776 97.087 76.9494C97.1416 79.6702 97.2956 79.7158 100.019 79.2671C108.005 77.9418 114.365 74.0366 118.81 67.392C123.083 61.0021 123.743 53.9208 122.146 46.5151C122.076 46.1776 121.9 45.8623 121.852 45.5245C121.722 44.9396 121.691 44.3309 121.57 42.993Z" fill="url(#paint35_linear_282_1363)"/>
<path d="M67.4872 93.0118C67.632 92.6719 67.7982 92.3418 67.9849 92.0236C72.9055 85.1293 71.0716 76.4151 63.8228 72.1432C63.1483 71.7471 62.8489 71.7108 62.4655 72.5222C59.689 78.4006 57.9347 84.5149 58.3083 91.1054C58.4581 93.7404 58.9851 96.2862 60.6327 98.449C62.2026 100.516 64.3889 101.559 66.7846 102.182C71.0343 103.309 75.4807 103.431 79.78 102.537C82.0285 102.071 84.2558 101.498 86.4813 100.929C87.7776 100.599 87.7821 100.52 87.2626 99.2666C85.7342 95.5925 83.1529 92.9851 79.4748 91.6014C75.9379 90.2714 72.4745 90.7482 69.1086 92.3419C68.9548 92.4128 68.8236 92.5324 68.6673 92.5932C68.4018 92.7208 68.114 92.804 67.4872 93.0118Z" fill="url(#paint36_linear_282_1363)"/>
<path d="M110.893 93.0994C110.601 92.873 110.324 92.6283 110.063 92.367C104.645 85.8564 95.7509 85.4165 89.7777 91.3423C89.2232 91.8941 89.112 92.1744 89.7995 92.7513C94.7797 96.93 100.248 100.18 106.717 101.493C109.304 102.017 111.9 102.154 114.41 101.11C116.808 100.117 118.372 98.2672 119.584 96.1085C121.754 92.2845 123 88.0148 123.228 83.6295C123.348 81.3363 123.36 79.0365 123.376 76.7396C123.385 75.4018 123.31 75.3774 121.966 75.5616C118.024 76.1065 114.846 77.9407 112.574 81.1466C110.389 84.2297 109.97 87.7006 110.657 91.361C110.686 91.5277 110.768 91.685 110.787 91.8517C110.844 92.1408 110.851 92.4403 110.893 93.0994Z" fill="url(#paint37_linear_282_1363)"/>
<path d="M75.8645 29.7996C75.7491 29.4486 75.6563 29.0909 75.5866 28.7286C74.7363 20.3012 67.6093 14.9622 59.3435 16.5339C58.5752 16.6812 58.3263 16.8513 58.5734 17.714C60.3649 23.9635 63.0801 29.7159 67.7087 34.4224C69.5596 36.3038 71.6351 37.8692 74.3002 38.4077C76.8437 38.9255 79.1745 38.2667 81.3863 37.1549C85.3237 35.1985 88.7453 32.3564 91.3866 28.8484C92.7689 27.0146 94.0649 25.1147 95.3623 23.2192C96.1183 22.1155 96.0697 22.0533 94.8525 21.4543C91.28 19.7014 87.62 19.4447 83.943 20.8313C80.4075 22.1651 78.1193 24.8083 76.6411 28.2265C76.5723 28.3813 76.5526 28.5577 76.4752 28.7065C76.3599 28.9775 76.1984 29.2299 75.8645 29.7996Z" fill="url(#paint38_linear_282_1363)"/>
<path d="M174.529 74.0889C174.62 73.7307 174.734 73.379 174.869 73.0359C178.67 65.4665 175.518 57.1383 167.698 54.0326C166.97 53.7449 166.669 53.7551 166.415 54.6158C164.576 60.8515 163.783 67.1629 165.167 73.6175C165.72 76.198 166.632 78.6324 168.593 80.516C170.462 82.3168 172.783 83.0106 175.246 83.2582C179.619 83.7181 184.031 83.1539 188.141 81.6092C190.291 80.8026 192.404 79.8939 194.516 78.9897C195.746 78.4634 195.738 78.3848 195.032 77.2265C192.956 73.8313 190.005 71.652 186.157 70.8507C182.458 70.0808 179.109 71.0848 176.028 73.1774C175.887 73.2712 175.776 73.4096 175.631 73.4936C175.388 73.6606 175.117 73.787 174.529 74.0889Z" fill="url(#paint39_linear_282_1363)"/>
<path d="M170.26 122.864C169.894 122.916 169.526 122.944 169.157 122.948C160.712 122.29 154.194 128.356 154.274 136.77C154.282 137.552 154.406 137.827 155.299 137.737C161.767 137.083 167.91 135.431 173.363 131.711C175.543 130.223 177.452 128.458 178.454 125.931C179.415 123.52 179.18 121.109 178.479 118.735C177.252 114.513 175.062 110.642 172.078 107.42C170.519 105.734 168.879 104.122 167.244 102.508C166.292 101.569 166.222 101.605 165.416 102.697C163.057 105.902 162.155 109.458 162.868 113.323C163.553 117.039 165.748 119.76 168.85 121.821C168.99 121.916 169.16 121.967 169.293 122.07C169.539 122.231 169.759 122.435 170.26 122.864Z" fill="url(#paint40_linear_282_1363)"/>
<path d="M60.3729 129.558C60.0127 129.64 59.6478 129.699 59.2806 129.735C50.8106 129.792 44.8277 136.388 45.6184 144.765C45.6932 145.543 45.8393 145.807 46.7213 145.642C53.1111 144.443 59.0924 142.279 64.2116 138.111C66.2581 136.445 68.011 134.525 68.7967 131.922C69.5504 129.438 69.1127 127.056 68.2129 124.75C66.6338 120.646 64.1246 116.974 60.8793 114.015C59.183 112.468 57.4129 110.999 55.6472 109.53C54.6191 108.674 54.5526 108.717 53.8422 109.872C51.7625 113.265 51.1642 116.885 52.2004 120.676C53.1974 124.32 55.6146 126.846 58.8794 128.638C59.0271 128.721 59.2009 128.757 59.3418 128.848C59.6008 128.988 59.837 129.173 60.3729 129.558Z" fill="url(#paint41_linear_282_1363)"/>
<path d="M28.8782 79.825C28.8248 79.4594 28.7948 79.0911 28.7884 78.7222C29.3986 70.274 23.2948 63.79 14.8818 63.9182C14.0997 63.9313 13.8252 64.0562 13.9205 64.9485C14.6117 71.4128 16.2982 77.5462 20.0494 82.9779C21.5496 85.1493 23.3253 87.0481 25.8583 88.0364C28.275 88.9834 30.6843 88.7348 33.0542 88.0196C37.2692 86.7687 41.1282 84.5567 44.3329 81.5546C46.0097 79.9856 47.6128 78.3366 49.2166 76.6922C50.1509 75.7348 50.1138 75.6652 49.0176 74.8659C45.7994 72.5253 42.2378 71.6437 38.3773 72.3779C34.6652 73.0846 31.9569 75.2952 29.9134 78.4087C29.8191 78.5494 29.7694 78.7198 29.6676 78.8531C29.5075 79.1003 29.305 79.3212 28.8782 79.825Z" fill="url(#paint42_linear_282_1363)"/>
<path d="M119.003 173.558C119.185 173.237 119.387 172.928 119.609 172.633C125.277 166.338 124.439 157.473 117.72 152.409C117.094 151.939 116.801 151.869 116.328 152.632C112.905 158.159 110.471 164.036 110.098 170.627C109.949 173.262 110.185 175.851 111.578 178.186C112.904 180.417 114.959 181.7 117.268 182.59C121.364 184.191 125.768 184.814 130.141 184.411C132.427 184.202 134.705 183.885 136.981 183.571C138.306 183.389 138.319 183.311 137.945 182.007C136.841 178.184 134.571 175.302 131.073 173.511C127.709 171.79 124.214 171.873 120.689 173.076C120.529 173.129 120.385 173.233 120.222 173.276C119.944 173.372 119.649 173.422 119.003 173.558Z" fill="url(#paint43_linear_282_1363)"/>
<path d="M157.462 166.736C157.786 166.557 158.12 166.399 158.462 166.262C166.582 163.85 170.492 155.849 167.401 148.024C167.113 147.297 166.899 147.084 166.098 147.488C160.294 150.418 155.152 154.162 151.395 159.59C149.893 161.76 148.744 164.092 148.714 166.811C148.681 169.406 149.765 171.572 151.271 173.537C153.93 177.038 157.362 179.868 161.302 181.806C163.362 182.82 165.471 183.738 167.576 184.657C168.802 185.193 168.854 185.134 169.214 183.826C170.268 179.989 169.835 176.345 167.784 172.993C165.812 169.77 162.788 168.017 159.153 167.204C158.988 167.166 158.811 167.179 158.651 167.131C158.363 167.069 158.085 166.957 157.462 166.736Z" fill="url(#paint44_linear_282_1363)"/>
<path d="M93.3194 191.28C93.5857 191.537 93.8351 191.809 94.0662 192.097C98.7616 199.147 107.558 200.529 114.128 195.272C114.738 194.783 114.878 194.516 114.256 193.869C109.748 189.184 104.657 185.371 98.3636 183.378C95.8474 182.582 93.2806 182.17 90.6733 182.941C88.1833 183.674 86.4318 185.347 84.9974 187.364C82.4334 190.936 80.7397 195.049 80.0472 199.385C79.6838 201.653 79.4276 203.938 79.1681 206.22C79.0165 207.55 79.0885 207.582 80.4446 207.542C84.422 207.419 87.7767 205.933 90.3772 202.987C92.8774 200.153 93.6627 196.747 93.3694 193.034C93.3577 192.865 93.2925 192.7 93.2913 192.532C93.2663 192.239 93.2909 191.94 93.3194 191.28Z" fill="url(#paint45_linear_282_1363)"/>
<path d="M68.4996 182.742C68.2605 183.024 68.0037 183.29 67.731 183.538C60.9858 188.662 60.1506 197.527 65.8047 203.758C66.3313 204.337 66.6064 204.46 67.2133 203.799C71.6095 199.01 75.0996 193.692 76.6991 187.287C77.3381 184.727 77.5904 182.139 76.659 179.585C75.7734 177.145 73.9951 175.5 71.8925 174.194C68.1689 171.856 63.9589 170.42 59.5881 169.998C57.3025 169.776 55.0055 169.662 52.7115 169.544C51.3755 169.475 51.3477 169.549 51.4719 170.9C51.8409 174.862 53.5319 178.118 56.6335 180.531C59.6163 182.851 63.0652 183.424 66.7524 182.901C66.9204 182.879 67.0812 182.804 67.2485 182.792C67.5398 182.749 67.8394 182.755 68.4996 182.742Z" fill="url(#paint46_linear_282_1363)"/>
<path d="M143.853 220.37C143.892 221.121 143.884 221.873 143.828 222.621C141.004 239.619 152.149 253.9 169.214 255.222C170.801 255.342 171.381 255.141 171.355 253.315C171.17 240.091 168.907 227.351 162.329 215.643C159.698 210.963 156.458 206.783 151.513 204.305C146.796 201.933 141.869 201.983 136.934 202.987C128.161 204.728 119.929 208.484 112.873 213.963C109.182 216.826 105.625 219.864 102.067 222.894C99.9942 224.658 100.057 224.806 102.127 226.631C108.206 231.977 115.254 234.432 123.212 233.67C130.864 232.936 136.765 228.967 141.49 223.045C141.707 222.778 141.84 222.442 142.071 222.191C142.442 221.72 142.894 221.311 143.853 220.37Z" fill="url(#paint47_linear_282_1363)"/>
<path d="M140.323 88.2924C140.627 88.5016 140.918 88.7298 141.193 88.9757C146.978 95.1627 155.882 95.0885 161.504 88.8278C162.025 88.2449 162.12 87.9587 161.401 87.4224C156.187 83.5381 150.541 80.6091 144.007 79.6718C141.394 79.2975 138.794 79.3107 136.348 80.498C134.012 81.628 132.557 83.5649 131.472 85.79C129.527 89.7328 128.528 94.0673 128.554 98.4585C128.567 100.755 128.688 103.051 128.805 105.345C128.873 106.681 128.949 106.702 130.28 106.44C134.184 105.669 137.25 103.654 139.334 100.322C141.337 97.1182 141.555 93.6289 140.659 90.0143C140.619 89.8495 140.528 89.6972 140.5 89.532C140.427 89.2465 140.402 88.9479 140.323 88.2924Z" fill="url(#paint48_linear_282_1363)"/>
</g>
<defs>
<linearGradient id="paint0_linear_282_1363" x1="161.635" y1="561.93" x2="162.525" y2="-11.6719" gradientUnits="userSpaceOnUse">
<stop stop-color="#88DE1F"/>
<stop offset="1" stop-color="#8FEA21" stop-opacity="0"/>
</linearGradient>
<linearGradient id="paint1_linear_282_1363" x1="161.635" y1="561.93" x2="162.525" y2="-11.6718" gradientUnits="userSpaceOnUse">
<stop stop-color="#88DE1F"/>
<stop offset="1" stop-color="#8FEA21" stop-opacity="0"/>
</linearGradient>
<linearGradient id="paint2_linear_282_1363" x1="161.634" y1="561.93" x2="162.524" y2="-11.6718" gradientUnits="userSpaceOnUse">
<stop stop-color="#88DE1F"/>
<stop offset="1" stop-color="#8FEA21" stop-opacity="0"/>
</linearGradient>
<linearGradient id="paint3_linear_282_1363" x1="161.635" y1="561.93" x2="162.525" y2="-11.6718" gradientUnits="userSpaceOnUse">
<stop stop-color="#88DE1F"/>
<stop offset="1" stop-color="#8FEA21" stop-opacity="0"/>
</linearGradient>
<linearGradient id="paint4_linear_282_1363" x1="161.634" y1="561.93" x2="162.524" y2="-11.6719" gradientUnits="userSpaceOnUse">
<stop stop-color="#88DE1F"/>
<stop offset="1" stop-color="#8FEA21" stop-opacity="0"/>
</linearGradient>
<linearGradient id="paint5_linear_282_1363" x1="161.635" y1="561.93" x2="162.525" y2="-11.6718" gradientUnits="userSpaceOnUse">
<stop stop-color="#88DE1F"/>
<stop offset="1" stop-color="#8FEA21" stop-opacity="0"/>
</linearGradient>
<linearGradient id="paint6_linear_282_1363" x1="161.635" y1="561.93" x2="162.525" y2="-11.6718" gradientUnits="userSpaceOnUse">
<stop stop-color="#88DE1F"/>
<stop offset="1" stop-color="#8FEA21" stop-opacity="0"/>
</linearGradient>
<linearGradient id="paint7_linear_282_1363" x1="161.635" y1="561.93" x2="162.525" y2="-11.6719" gradientUnits="userSpaceOnUse">
<stop stop-color="#88DE1F"/>
<stop offset="1" stop-color="#8FEA21" stop-opacity="0"/>
</linearGradient>
<linearGradient id="paint8_linear_282_1363" x1="161.635" y1="561.93" x2="162.525" y2="-11.6718" gradientUnits="userSpaceOnUse">
<stop stop-color="#88DE1F"/>
<stop offset="1" stop-color="#8FEA21" stop-opacity="0"/>
</linearGradient>
<linearGradient id="paint9_linear_282_1363" x1="161.635" y1="561.93" x2="162.525" y2="-11.672" gradientUnits="userSpaceOnUse">
<stop stop-color="#88DE1F"/>
<stop offset="1" stop-color="#8FEA21" stop-opacity="0"/>
</linearGradient>
<linearGradient id="paint10_linear_282_1363" x1="161.635" y1="561.93" x2="162.525" y2="-11.6718" gradientUnits="userSpaceOnUse">
<stop stop-color="#88DE1F"/>
<stop offset="1" stop-color="#8FEA21" stop-opacity="0"/>
</linearGradient>
<linearGradient id="paint11_linear_282_1363" x1="161.635" y1="561.93" x2="162.525" y2="-11.6718" gradientUnits="userSpaceOnUse">
<stop stop-color="#88DE1F"/>
<stop offset="1" stop-color="#8FEA21" stop-opacity="0"/>
</linearGradient>
<linearGradient id="paint12_linear_282_1363" x1="161.635" y1="561.93" x2="162.525" y2="-11.6717" gradientUnits="userSpaceOnUse">
<stop stop-color="#88DE1F"/>
<stop offset="1" stop-color="#8FEA21" stop-opacity="0"/>
</linearGradient>
<linearGradient id="paint13_linear_282_1363" x1="161.635" y1="561.93" x2="162.525" y2="-11.6718" gradientUnits="userSpaceOnUse">
<stop stop-color="#88DE1F"/>
<stop offset="1" stop-color="#8FEA21" stop-opacity="0"/>
</linearGradient>
<linearGradient id="paint14_linear_282_1363" x1="161.635" y1="561.93" x2="162.525" y2="-11.6719" gradientUnits="userSpaceOnUse">
<stop stop-color="#88DE1F"/>
<stop offset="1" stop-color="#8FEA21" stop-opacity="0"/>
</linearGradient>
<linearGradient id="paint15_linear_282_1363" x1="161.635" y1="561.93" x2="162.525" y2="-11.6719" gradientUnits="userSpaceOnUse">
<stop stop-color="#88DE1F"/>
<stop offset="1" stop-color="#8FEA21" stop-opacity="0"/>
</linearGradient>
<linearGradient id="paint16_linear_282_1363" x1="161.635" y1="561.93" x2="162.525" y2="-11.6718" gradientUnits="userSpaceOnUse">
<stop stop-color="#88DE1F"/>
<stop offset="1" stop-color="#8FEA21" stop-opacity="0"/>
</linearGradient>
<linearGradient id="paint17_linear_282_1363" x1="161.635" y1="561.93" x2="162.525" y2="-11.6718" gradientUnits="userSpaceOnUse">
<stop stop-color="#88DE1F"/>
<stop offset="1" stop-color="#8FEA21" stop-opacity="0"/>
</linearGradient>
<linearGradient id="paint18_linear_282_1363" x1="161.635" y1="561.93" x2="162.525" y2="-11.6718" gradientUnits="userSpaceOnUse">
<stop stop-color="#88DE1F"/>
<stop offset="1" stop-color="#8FEA21" stop-opacity="0"/>
</linearGradient>
<linearGradient id="paint19_linear_282_1363" x1="161.635" y1="561.93" x2="162.525" y2="-11.6718" gradientUnits="userSpaceOnUse">
<stop stop-color="#88DE1F"/>
<stop offset="1" stop-color="#8FEA21" stop-opacity="0"/>
</linearGradient>
<linearGradient id="paint20_linear_282_1363" x1="161.635" y1="561.93" x2="162.525" y2="-11.6718" gradientUnits="userSpaceOnUse">
<stop stop-color="#88DE1F"/>
<stop offset="1" stop-color="#8FEA21" stop-opacity="0"/>
</linearGradient>
<linearGradient id="paint21_linear_282_1363" x1="161.635" y1="561.93" x2="162.525" y2="-11.6718" gradientUnits="userSpaceOnUse">
<stop stop-color="#88DE1F"/>
<stop offset="1" stop-color="#8FEA21" stop-opacity="0"/>
</linearGradient>
<linearGradient id="paint22_linear_282_1363" x1="161.635" y1="561.93" x2="162.525" y2="-11.6718" gradientUnits="userSpaceOnUse">
<stop stop-color="#88DE1F"/>
<stop offset="1" stop-color="#8FEA21" stop-opacity="0"/>
</linearGradient>
<linearGradient id="paint23_linear_282_1363" x1="161.634" y1="561.93" x2="162.524" y2="-11.6717" gradientUnits="userSpaceOnUse">
<stop stop-color="#88DE1F"/>
<stop offset="1" stop-color="#8FEA21" stop-opacity="0"/>
</linearGradient>
<linearGradient id="paint24_linear_282_1363" x1="161.635" y1="561.93" x2="162.525" y2="-11.6716" gradientUnits="userSpaceOnUse">
<stop stop-color="#88DE1F"/>
<stop offset="1" stop-color="#8FEA21" stop-opacity="0"/>
</linearGradient>
<linearGradient id="paint25_linear_282_1363" x1="161.635" y1="561.93" x2="162.525" y2="-11.6717" gradientUnits="userSpaceOnUse">
<stop stop-color="#88DE1F"/>
<stop offset="1" stop-color="#8FEA21" stop-opacity="0"/>
</linearGradient>
<linearGradient id="paint26_linear_282_1363" x1="161.635" y1="561.93" x2="162.525" y2="-11.6718" gradientUnits="userSpaceOnUse">
<stop stop-color="#88DE1F"/>
<stop offset="1" stop-color="#8FEA21" stop-opacity="0"/>
</linearGradient>
<linearGradient id="paint27_linear_282_1363" x1="161.635" y1="561.93" x2="162.525" y2="-11.6718" gradientUnits="userSpaceOnUse">
<stop stop-color="#88DE1F"/>
<stop offset="1" stop-color="#8FEA21" stop-opacity="0"/>
</linearGradient>
<linearGradient id="paint28_linear_282_1363" x1="161.635" y1="561.93" x2="162.525" y2="-11.6718" gradientUnits="userSpaceOnUse">
<stop stop-color="#88DE1F"/>
<stop offset="1" stop-color="#8FEA21" stop-opacity="0"/>
</linearGradient>
<linearGradient id="paint29_linear_282_1363" x1="161.635" y1="561.93" x2="162.525" y2="-11.6718" gradientUnits="userSpaceOnUse">
<stop stop-color="#88DE1F"/>
<stop offset="1" stop-color="#8FEA21" stop-opacity="0"/>
</linearGradient>
<linearGradient id="paint30_linear_282_1363" x1="161.635" y1="561.93" x2="162.525" y2="-11.6718" gradientUnits="userSpaceOnUse">
<stop stop-color="#88DE1F"/>
<stop offset="1" stop-color="#8FEA21" stop-opacity="0"/>
</linearGradient>
<linearGradient id="paint31_linear_282_1363" x1="161.635" y1="561.93" x2="162.525" y2="-11.6718" gradientUnits="userSpaceOnUse">
<stop stop-color="#88DE1F"/>
<stop offset="1" stop-color="#8FEA21" stop-opacity="0"/>
</linearGradient>
<linearGradient id="paint32_linear_282_1363" x1="161.635" y1="561.93" x2="162.525" y2="-11.6718" gradientUnits="userSpaceOnUse">
<stop stop-color="#88DE1F"/>
<stop offset="1" stop-color="#8FEA21" stop-opacity="0"/>
</linearGradient>
<linearGradient id="paint33_linear_282_1363" x1="161.635" y1="561.93" x2="162.525" y2="-11.6718" gradientUnits="userSpaceOnUse">
<stop stop-color="#88DE1F"/>
<stop offset="1" stop-color="#8FEA21" stop-opacity="0"/>
</linearGradient>
<linearGradient id="paint34_linear_282_1363" x1="161.635" y1="561.93" x2="162.525" y2="-11.6718" gradientUnits="userSpaceOnUse">
<stop stop-color="#88DE1F"/>
<stop offset="1" stop-color="#8FEA21" stop-opacity="0"/>
</linearGradient>
<linearGradient id="paint35_linear_282_1363" x1="161.635" y1="561.93" x2="162.525" y2="-11.6718" gradientUnits="userSpaceOnUse">
<stop stop-color="#88DE1F"/>
<stop offset="1" stop-color="#8FEA21" stop-opacity="0"/>
</linearGradient>
<linearGradient id="paint36_linear_282_1363" x1="161.635" y1="561.93" x2="162.525" y2="-11.6718" gradientUnits="userSpaceOnUse">
<stop stop-color="#88DE1F"/>
<stop offset="1" stop-color="#8FEA21" stop-opacity="0"/>
</linearGradient>
<linearGradient id="paint37_linear_282_1363" x1="161.635" y1="561.93" x2="162.525" y2="-11.6718" gradientUnits="userSpaceOnUse">
<stop stop-color="#88DE1F"/>
<stop offset="1" stop-color="#8FEA21" stop-opacity="0"/>
</linearGradient>
<linearGradient id="paint38_linear_282_1363" x1="161.635" y1="561.93" x2="162.525" y2="-11.6718" gradientUnits="userSpaceOnUse">
<stop stop-color="#88DE1F"/>
<stop offset="1" stop-color="#8FEA21" stop-opacity="0"/>
</linearGradient>
<linearGradient id="paint39_linear_282_1363" x1="161.635" y1="561.93" x2="162.525" y2="-11.6718" gradientUnits="userSpaceOnUse">
<stop stop-color="#88DE1F"/>
<stop offset="1" stop-color="#8FEA21" stop-opacity="0"/>
</linearGradient>
<linearGradient id="paint40_linear_282_1363" x1="161.635" y1="561.93" x2="162.525" y2="-11.6718" gradientUnits="userSpaceOnUse">
<stop stop-color="#88DE1F"/>
<stop offset="1" stop-color="#8FEA21" stop-opacity="0"/>
</linearGradient>
<linearGradient id="paint41_linear_282_1363" x1="161.635" y1="561.93" x2="162.525" y2="-11.6718" gradientUnits="userSpaceOnUse">
<stop stop-color="#88DE1F"/>
<stop offset="1" stop-color="#8FEA21" stop-opacity="0"/>
</linearGradient>
<linearGradient id="paint42_linear_282_1363" x1="161.635" y1="561.93" x2="162.525" y2="-11.6718" gradientUnits="userSpaceOnUse">
<stop stop-color="#88DE1F"/>
<stop offset="1" stop-color="#8FEA21" stop-opacity="0"/>
</linearGradient>
<linearGradient id="paint43_linear_282_1363" x1="161.635" y1="561.93" x2="162.525" y2="-11.6718" gradientUnits="userSpaceOnUse">
<stop stop-color="#88DE1F"/>
<stop offset="1" stop-color="#8FEA21" stop-opacity="0"/>
</linearGradient>
<linearGradient id="paint44_linear_282_1363" x1="161.635" y1="561.93" x2="162.525" y2="-11.6718" gradientUnits="userSpaceOnUse">
<stop stop-color="#88DE1F"/>
<stop offset="1" stop-color="#8FEA21" stop-opacity="0"/>
</linearGradient>
<linearGradient id="paint45_linear_282_1363" x1="161.635" y1="561.93" x2="162.525" y2="-11.6719" gradientUnits="userSpaceOnUse">
<stop stop-color="#88DE1F"/>
<stop offset="1" stop-color="#8FEA21" stop-opacity="0"/>
</linearGradient>
<linearGradient id="paint46_linear_282_1363" x1="161.635" y1="561.93" x2="162.525" y2="-11.6717" gradientUnits="userSpaceOnUse">
<stop stop-color="#88DE1F"/>
<stop offset="1" stop-color="#8FEA21" stop-opacity="0"/>
</linearGradient>
<linearGradient id="paint47_linear_282_1363" x1="161.635" y1="561.93" x2="162.525" y2="-11.6719" gradientUnits="userSpaceOnUse">
<stop stop-color="#88DE1F"/>
<stop offset="1" stop-color="#8FEA21" stop-opacity="0"/>
</linearGradient>
<linearGradient id="paint48_linear_282_1363" x1="161.635" y1="561.93" x2="162.525" y2="-11.6718" gradientUnits="userSpaceOnUse">
<stop stop-color="#88DE1F"/>
<stop offset="1" stop-color="#8FEA21" stop-opacity="0"/>
</linearGradient>
<clipPath id="clip0_282_1363">
<rect width="1009" height="799" fill="white"/>
</clipPath>
</defs>
</svg>
