<svg xmlns="http://www.w3.org/2000/svg" width="25" height="24" viewBox="0 0 25 24" fill="none">
  <mask id="mask0_277_4" style="mask-type:alpha" maskUnits="userSpaceOnUse" x="0" y="0" width="25" height="24">
    <rect x="0.75" width="24" height="24" fill="#D9D9D9"/>
  </mask>
  <g mask="url(#mask0_277_4)">
    <path d="M12.75 11.6923C11.7875 11.6923 10.9635 11.3496 10.2781 10.6642C9.59271 9.97876 9.25 9.15481 9.25 8.19233C9.25 7.22983 9.59271 6.40588 10.2781 5.72048C10.9635 5.03506 11.7875 4.69235 12.75 4.69235C13.7125 4.69235 14.5364 5.03506 15.2218 5.72048C15.9072 6.40588 16.25 7.22983 16.25 8.19233C16.25 9.15481 15.9072 9.97876 15.2218 10.6642C14.5364 11.3496 13.7125 11.6923 12.75 11.6923ZM5.25 19.3077V17.0846C5.25 16.5949 5.38302 16.1414 5.64905 15.7241C5.91507 15.3068 6.27051 14.9859 6.71537 14.7616C7.70384 14.2769 8.70096 13.9135 9.70672 13.6712C10.7125 13.4289 11.7269 13.3077 12.75 13.3077C13.773 13.3077 14.7875 13.4289 15.7932 13.6712C16.799 13.9135 17.7961 14.2769 18.7846 14.7616C19.2294 14.9859 19.5849 15.3068 19.8509 15.7241C20.1169 16.1414 20.25 16.5949 20.25 17.0846V19.3077H5.25ZM6.74997 17.8077H18.75V17.0846C18.75 16.882 18.6913 16.6945 18.574 16.5221C18.4567 16.3497 18.2974 16.209 18.0961 16.1C17.2346 15.6756 16.3561 15.3542 15.4607 15.1356C14.5652 14.917 13.6617 14.8077 12.75 14.8077C11.8383 14.8077 10.9347 14.917 10.0393 15.1356C9.14384 15.3542 8.26536 15.6756 7.40382 16.1C7.20254 16.209 7.04325 16.3497 6.92595 16.5221C6.80863 16.6945 6.74997 16.882 6.74997 17.0846V17.8077ZM12.75 10.1923C13.3 10.1923 13.7708 9.99649 14.1625 9.60483C14.5541 9.21316 14.75 8.74233 14.75 8.19233C14.75 7.64233 14.5541 7.17149 14.1625 6.77983C13.7708 6.38816 13.3 6.19233 12.75 6.19233C12.2 6.19233 11.7291 6.38816 11.3375 6.77983C10.9458 7.17149 10.75 7.64233 10.75 8.19233C10.75 8.74233 10.9458 9.21316 11.3375 9.60483C11.7291 9.99649 12.2 10.1923 12.75 10.1923Z" fill="black"/>
  </g>
</svg>