<svg xmlns="http://www.w3.org/2000/svg" width="25" height="24" viewBox="0 0 25 24" fill="none">
  <mask id="mask0_277_253" style="mask-type:alpha" maskUnits="userSpaceOnUse" x="0" y="0" width="25" height="24">
    <rect x="0.25" width="24" height="24" fill="#D9D9D9"/>
  </mask>
  <g mask="url(#mask0_277_253)">
    <path d="M12.2499 21.1C10.9973 21.1 9.81815 20.8628 8.7124 20.3884C7.60664 19.9141 6.64029 19.2634 5.81335 18.4365C4.98644 17.6096 4.3358 16.6432 3.86145 15.5375C3.38709 14.4317 3.1499 13.2526 3.1499 12C3.1499 10.7372 3.38709 9.55546 3.86145 8.45483C4.3358 7.35419 4.98644 6.39041 5.81335 5.56348C6.64029 4.73656 7.60664 4.08593 8.7124 3.61158C9.81815 3.13721 10.9973 2.90002 12.2499 2.90002C13.5127 2.90002 14.6944 3.13721 15.7951 3.61158C16.8957 4.08593 17.8595 4.73656 18.6864 5.56348C19.5133 6.39041 20.164 7.35419 20.6383 8.45483C21.1127 9.55546 21.3499 10.7372 21.3499 12C21.3499 13.2526 21.1127 14.4317 20.6383 15.5375C20.164 16.6432 19.5133 17.6096 18.6864 18.4365C17.8595 19.2634 16.8957 19.9141 15.7951 20.3884C14.6944 20.8628 13.5127 21.1 12.2499 21.1ZM12.2499 19.7539C12.6101 19.3936 12.948 18.8067 13.2634 17.9933C13.5787 17.1798 13.821 16.2731 13.9903 15.2731H10.5095C10.6915 16.2987 10.937 17.2183 11.246 18.0317C11.555 18.8452 11.8896 19.4192 12.2499 19.7539ZM10.6384 19.6289C10.3217 19.1289 10.0358 18.4994 9.78068 17.7404C9.52554 16.9814 9.33003 16.159 9.19413 15.2731H5.17678C5.70499 16.4282 6.45084 17.3882 7.4143 18.1529C8.37779 18.9177 9.45248 19.4096 10.6384 19.6289ZM13.8614 19.6289C15.0473 19.4096 16.122 18.9177 17.0855 18.1529C18.0489 17.3882 18.7948 16.4282 19.323 15.2731H15.3056C15.1377 16.1654 14.9261 16.991 14.671 17.75C14.4159 18.509 14.146 19.1353 13.8614 19.6289ZM4.72295 13.9731H9.06528C9.01913 13.618 8.99029 13.2702 8.97875 12.9298C8.96722 12.5894 8.96145 12.2628 8.96145 11.95C8.96145 11.6372 8.96722 11.3189 8.97875 10.9952C8.99029 10.6715 9.01913 10.3487 9.06528 10.0269H4.72295C4.6268 10.35 4.55725 10.6782 4.5143 11.0115C4.47135 11.3449 4.44988 11.6744 4.44988 12C4.44988 12.3257 4.47135 12.6551 4.5143 12.9885C4.55725 13.3218 4.6268 13.65 4.72295 13.9731ZM10.3903 13.9731H14.1095C14.1557 13.6013 14.1845 13.2567 14.1961 12.9394C14.2076 12.6221 14.2134 12.309 14.2134 12C14.2134 11.691 14.2076 11.3737 14.1961 11.0481C14.1845 10.7224 14.1557 10.382 14.1095 10.0269H10.3903C10.3441 10.382 10.3153 10.7224 10.3037 11.0481C10.2922 11.3737 10.2864 11.691 10.2864 12C10.2864 12.309 10.2922 12.6263 10.3037 12.9519C10.3153 13.2776 10.3441 13.618 10.3903 13.9731ZM15.4345 13.9731H19.7768C19.873 13.65 19.9425 13.3218 19.9855 12.9885C20.0284 12.6551 20.0499 12.3257 20.0499 12C20.0499 11.6744 20.0284 11.3407 19.9855 10.999C19.9425 10.6574 19.873 10.3333 19.7768 10.0269H15.4345C15.4806 10.382 15.5095 10.7298 15.521 11.0702C15.5325 11.4106 15.5383 11.7372 15.5383 12.05C15.5383 12.3628 15.5325 12.6811 15.521 13.0048C15.5095 13.3285 15.4806 13.6513 15.4345 13.9731ZM15.3056 8.72695H19.323C18.7883 7.55898 18.0473 6.59903 17.0999 5.8471C16.1524 5.09518 15.0729 4.59999 13.8614 4.36153C14.178 4.89358 14.4607 5.53428 14.7095 6.28365C14.9582 7.03302 15.1569 7.84745 15.3056 8.72695ZM10.5095 8.72695H13.9903C13.8082 7.70772 13.5579 6.78335 13.2393 5.95385C12.9207 5.12437 12.5909 4.55513 12.2499 4.24615C11.9088 4.55513 11.579 5.12437 11.2605 5.95385C10.9419 6.78335 10.6915 7.70772 10.5095 8.72695ZM5.17678 8.72695H9.19413C9.34284 7.84745 9.54157 7.03302 9.7903 6.28365C10.039 5.53428 10.3217 4.89358 10.6384 4.36153C9.42043 4.59999 8.33933 5.09679 7.39508 5.85193C6.45084 6.60706 5.71141 7.5654 5.17678 8.72695Z" fill="#1C1B1F"/>
  </g>
</svg>