<svg xmlns="http://www.w3.org/2000/svg" width="6" height="8" viewBox="0 0 6 8" fill="none">
  <path d="M3.68586 7.89191C3.02319 7.89191 2.43053 7.75658 1.90786 7.48591C1.39453 7.21524 0.988526 6.79524 0.689859 6.22591C0.400526 5.65658 0.255859 4.92858 0.255859 4.04191C0.255859 3.11791 0.409859 2.36658 0.717859 1.78791C1.02586 1.20924 1.44119 0.784576 1.96386 0.51391C2.49586 0.243243 3.09786 0.10791 3.76986 0.10791C4.15253 0.10791 4.52119 0.14991 4.87586 0.23391C5.23053 0.308576 5.51986 0.40191 5.74386 0.51391L5.36586 1.53591C5.14186 1.45191 4.88053 1.37258 4.58186 1.29791C4.28319 1.22324 4.00319 1.18591 3.74186 1.18591C3.23786 1.18591 2.82253 1.29324 2.49586 1.50791C2.16919 1.72258 1.92653 2.03991 1.76786 2.45991C1.60919 2.87991 1.52986 3.40258 1.52986 4.02791C1.52986 4.62524 1.60919 5.13391 1.76786 5.55391C1.92653 5.97391 2.16453 6.29124 2.48186 6.50591C2.79919 6.72058 3.19586 6.82791 3.67186 6.82791C4.08253 6.82791 4.44186 6.78591 4.74986 6.70191C5.06719 6.61791 5.35653 6.51524 5.61786 6.39391V7.48591C5.36586 7.61658 5.08586 7.71458 4.77786 7.77991C4.47919 7.85458 4.11519 7.89191 3.68586 7.89191Z" fill="black" fill-opacity="0.8"/>
</svg>