<svg xmlns="http://www.w3.org/2000/svg" width="25" height="24" viewBox="0 0 25 24" fill="none">
  <mask id="mask0_277_10" style="mask-type:alpha" maskUnits="userSpaceOnUse" x="0" y="0" width="25" height="24">
    <rect x="0.75" width="24" height="24" fill="#D9D9D9"/>
  </mask>
  <g mask="url(#mask0_277_10)">
    <path d="M5.2576 19.9C4.80747 19.9 4.42699 19.7446 4.11615 19.4337C3.80532 19.1229 3.6499 18.7424 3.6499 18.2923V8.10774C3.6499 7.6576 3.80532 7.27712 4.11615 6.96629C4.42699 6.65545 4.80747 6.50004 5.2576 6.50004H8.4499V5.00246C8.4499 4.55088 8.60532 4.17092 8.91615 3.86259C9.22699 3.55425 9.60747 3.40009 10.0576 3.40009H15.4422C15.8923 3.40009 16.2728 3.5555 16.5836 3.86634C16.8944 4.17717 17.0499 4.55764 17.0499 5.00776V6.50004H20.2422C20.6923 6.50004 21.0728 6.65545 21.3836 6.96629C21.6944 7.27712 21.8499 7.6576 21.8499 8.10774V18.2923C21.8499 18.7424 21.6944 19.1229 21.3836 19.4337C21.0728 19.7446 20.6923 19.9 20.2422 19.9H5.2576ZM9.74988 6.50004H15.7499V5.00776C15.7499 4.93083 15.7178 4.86031 15.6537 4.79621C15.5896 4.73209 15.5191 4.70004 15.4422 4.70004H10.0576C9.98067 4.70004 9.91014 4.73209 9.84603 4.79621C9.78193 4.86031 9.74988 4.93083 9.74988 5.00776V6.50004ZM20.5499 14.45H15.2499V16.3H10.2499V14.45H4.94988V18.2923C4.94988 18.3692 4.98193 18.4397 5.04603 18.5039C5.11014 18.568 5.18067 18.6 5.2576 18.6H20.2422C20.3191 18.6 20.3896 18.568 20.4537 18.5039C20.5178 18.4397 20.5499 18.3692 20.5499 18.2923V14.45ZM11.5499 15H13.9499V12.6H11.5499V15ZM4.94988 13.15H10.2499V11.3H15.2499V13.15H20.5499V8.10774C20.5499 8.0308 20.5178 7.96028 20.4537 7.89616C20.3896 7.83206 20.3191 7.80001 20.2422 7.80001H5.2576C5.18067 7.80001 5.11014 7.83206 5.04603 7.89616C4.98193 7.96028 4.94988 8.0308 4.94988 8.10774V13.15Z" fill="#1C1B1F"/>
  </g>
</svg>